/vscmnt/brussel_pixiu_data/_data_brussel/112/vsc11236/PredSimResults/SUBJ07opt3D/trackIG/worker_08.mot
version=1
nRows=10
nColumns=50
inDegrees=yes
endheader
                time	         pelvis_tilt	         pelvis_list	     pelvis_rotation	           pelvis_tx	           pelvis_ty	           pelvis_tz	       hip_flexion_r	     hip_adduction_r	      hip_rotation_r	        knee_angle_r	       ankle_angle_r	         mtp_angle_r	       hip_flexion_l	     hip_adduction_l	      hip_rotation_l	        knee_angle_l	       ankle_angle_l	         mtp_angle_l	    lumbar_extension	      lumbar_bending	     lumbar_rotation	 ercspn_r/activation	 intobl_r/activation	 extobl_r/activation	    abd_r/activation	    add_r/activation	hamstrings_r/activation	bifemsh_r/activation	glut_max_r/activation	iliopsoas_r/activation	rect_fem_r/activation	  vasti_r/activation	gastroc_r/activation	 soleus_r/activation	tib_ant_r/activation	 ercspn_l/activation	 intobl_l/activation	 extobl_l/activation	    abd_l/activation	    add_l/activation	hamstrings_l/activation	bifemsh_l/activation	glut_max_l/activation	iliopsoas_l/activation	rect_fem_l/activation	  vasti_l/activation	gastroc_l/activation	 soleus_l/activation	tib_ant_l/activation	
          1.06590345	         -4.27160788	         -0.35145742	          8.26255929	          1.38567449	          0.84669246	         -0.01216883	         30.46134801	         -2.20842224	         -4.67564828	         -6.43661445	          2.56586817	          0.28037565	        -15.39355403	         -0.35897260	          4.03979645	         -8.46617241	          7.47503857	         28.85707804	        -11.19174534	         -1.20781325	         -1.63974596	          0.12183628	          0.13599727	          0.00999999	          0.01177649	          0.14339852	          0.08600007	          0.13490501	          0.08564030	          0.03946132	          0.01000000	          0.00999999	          0.00999999	          0.00999999	          0.41377001	          0.12556009	          0.00999999	          0.00999999	          0.03141338	          0.01775986	          0.01862642	          0.15598777	          0.01923300	          0.21180628	          0.01177650	          0.01177649	          0.14458071	          0.30115852	          0.01885259	
          1.07656249	         -4.26971245	         -0.34800517	          8.31824331	          1.40177533	          0.84513160	         -0.01189991	         30.30657127	         -1.99004771	         -4.33211116	         -8.07721581	          2.18708589	          0.26116220	        -15.86914463	         -0.48022981	          3.73344648	         -9.51458511	          6.46078451	         30.42286957	        -11.08718290	         -0.80439271	         -1.81740527	          0.10345707	          0.12840625	          0.00999999	          0.00999999	          0.12176662	          0.07856326	          0.13598256	          0.13835391	          0.03350852	          0.00999999	          0.00999999	          0.01386860	          0.01177649	          0.45787329	          0.13726149	          0.00999999	          0.00999999	          0.02667462	          0.03895238	          0.01581661	          0.13245675	          0.01633167	          0.17985494	          0.00999999	          0.00999999	          0.12277047	          0.28132054	          0.01600864	
          1.08722152	         -4.26164125	         -0.33432373	          8.32278973	          1.41799594	          0.84378349	         -0.01155205	         30.06998843	         -1.82670838	         -4.00483763	         -9.60938879	          1.71533436	          0.25388693	        -16.18226927	         -0.57306841	          3.37759577	        -10.87268957	          5.35003941	         31.91066666	        -10.98434631	         -0.41062534	         -1.98468635	          0.13569450	          0.10903595	          0.00999999	          0.09927078	          0.14402680	          0.07017841	          0.11621082	          0.13831717	          0.02845370	          0.00999999	          0.00999999	          0.01177650	          0.00999999	          0.53969424	          0.15707032	          0.00999999	          0.00999999	          0.02265071	          0.03307635	          0.01343070	          0.11247543	          0.01386801	          0.15272353	          0.01000000	          0.00999999	          0.10425033	          0.25851918	          0.01359371	
          1.09788056	         -4.24891731	         -0.29634952	          8.28030356	          1.43415449	          0.84280968	         -0.01111002	         29.82876597	         -1.68207868	         -3.73671674	        -11.11557138	          1.20913866	          0.23177126	        -16.25508429	         -0.62368023	          2.98846833	        -12.64668560	          4.12219087	         33.25314551	        -10.90295741	         -0.04337725	         -2.14189413	          0.15311902	          0.09258770	          0.00999999	          0.15143603	          0.17255056	          0.06002190	          0.09868022	          0.17267978	          0.02416141	          0.00999999	          0.00999999	          0.00999999	          0.00999999	          0.57080252	          0.19676214	          0.00999999	          0.00999999	          0.01923381	          0.04170653	          0.01328751	          0.09550832	          0.01177600	          0.12968493	          0.01000000	          0.00999999	          0.08852400	          0.22351781	          0.01154308	
          1.10853959	         -4.23138865	         -0.24087185	          8.19561916	          1.45012148	          0.84234918	         -0.01058633	         29.63983052	         -1.54741905	         -3.50879258	        -12.74937779	          0.97728950	          0.20767396	        -16.01812484	         -0.63944818	          2.57082862	        -14.93626529	          2.79584836	         34.29118485	        -10.84962721	          0.30425067	         -2.28674564	          0.16301305	          0.07862069	          0.00999999	          0.19707983	          0.20122319	          0.05096749	          0.08379414	          0.20239506	          0.02051662	          0.00999999	          0.01624106	          0.00999999	          0.00999999	          0.56024369	          0.24104524	          0.00999999	          0.00999999	          0.01633236	          0.05833941	          0.01470618	          0.08110073	          0.00999999	          0.11012174	          0.00999999	          0.00999999	          0.07517000	          0.18979977	          0.00999999	
          1.11919863	         -4.20979331	         -0.17253383	          8.06972732	          1.46578885	          0.84253228	         -0.00999356	         29.51175471	         -1.42207391	         -3.32374299	        -14.51660562	          1.08315337	          0.18514179	        -15.40398142	         -0.62618323	          2.12082077	        -17.83408004	          1.38158603	         34.81639297	        -10.82763847	          0.63490333	         -2.41625671	          0.17628570	          0.06676062	          0.00999999	          0.21941401	          0.22949069	          0.04634131	          0.07115366	          0.21737803	          0.01742165	          0.00999999	          0.03779502	          0.00999999	          0.00999999	          0.52631687	          0.26953708	          0.00999999	          0.00999999	          0.01386860	          0.09173236	          0.01574213	          0.06886655	          0.00999999	          0.09350969	          0.00999999	          0.00999999	          0.06383048	          0.16116815	          0.00999999	
          1.12985766	         -4.18511218	         -0.09153094	          7.90318448	          1.48115141	          0.84339226	         -0.00935320	         29.36851989	         -1.30183642	         -3.17017431	        -16.26572315	          1.48559447	          0.17136411	        -14.37840191	         -0.58898551	          1.64275288	        -21.36992831	         -0.18826398	         34.70662661	        -10.82751927	          0.94737147	         -2.52712671	          0.17457784	          0.05668967	          0.00999999	          0.22493827	          0.24417146	          0.04283430	          0.06042001	          0.22026852	          0.01479357	          0.00999999	          0.05601983	          0.00999999	          0.00999999	          0.46037825	          0.28129881	          0.00999999	          0.00999999	          0.01177649	          0.11898232	          0.01654197	          0.05847791	          0.00999999	          0.07940360	          0.00999999	          0.00999999	          0.05420154	          0.13685567	          0.00999999	
          1.14051669	         -4.15890082	         -0.00122189	          7.69708404	          1.49623542	          0.84486546	         -0.00867670	         29.12749300	         -1.17703595	         -3.02108061	        -17.83610937	          2.13101549	          0.18762906	        -12.94349400	         -0.53967857	          1.15997001	        -25.47563963	         -2.07806477	         33.97128810	        -10.83847600	          1.24263112	         -2.61731681	          0.14824248	          0.04813794	          0.00999999	          0.21851948	          0.24462518	          0.04467144	          0.05130555	          0.20605495	          0.01256193	          0.00999999	          0.08504194	          0.00999999	          0.00999999	          0.39092942	          0.28887832	          0.00999999	          0.00999999	          0.00999999	          0.13648829	          0.01404662	          0.04965642	          0.00999999	          0.06742543	          0.00999999	          0.00999999	          0.04602515	          0.11621076	          0.00999999	
          1.15117573	         -4.13380974	          0.09376237	          7.45235890	          1.51104184	          0.84685700	         -0.00795887	         28.72344824	         -1.03561138	         -2.84155882	        -19.08433100	          2.90114794	          0.26327873	        -11.12926035	         -0.48762340	          0.71108224	        -30.01645573	         -4.39886010	         32.54373382	        -10.85701162	          1.51980478	         -2.68791218	          0.12587985	          0.04087625	          0.00999999	          0.21882610	          0.23006478	          0.05511560	          0.04356602	          0.17497122	          0.01066694	          0.00999999	          0.10974431	          0.00999999	          0.00999999	          0.33195706	          0.28173184	          0.00999999	          0.00999999	          0.00999999	          0.14240278	          0.01192767	          0.04216567	          0.00999999	          0.05725419	          0.00999999	          0.00999999	          0.03908218	          0.09868017	          0.02443325	
          1.16183476	         -4.11214933	          0.18827083	          7.17150167	          1.52554773	          0.84922593	         -0.00720953	         28.13703030	         -0.87185683	         -2.60570353	        -19.94701596	          3.65286351	          0.39550269	         -9.00477694	         -0.42943003	          0.33665681	        -34.83549304	         -6.85189344	         29.96947027	        -10.88487054	          1.78118902	         -2.73860426	          0.10689066	          0.03471000	          0.00999999	          0.22909552	          0.19788973	          0.06658696	          0.03699401	          0.14857651	          0.00999999	          0.00999999	          0.13203011	          0.00999999	          0.00999999	          0.28692874	          0.28264172	          0.03710069	          0.00999999	          0.01105618	          0.12203645	          0.01012837	          0.03580491	          0.01497830	          0.04861730	          0.03442032	          0.00999999	          0.03318657	          0.08379410	          0.18273617	
